<svg width="12" height="12" viewBox="0 0 12 12" fill="none" xmlns="http://www.w3.org/2000/svg">
<path d="M7.60346 2.41662L8.99987 2.9988L9.58206 4.39521C9.59761 4.42641 9.62155 4.45266 9.65119 4.47101C9.68083 4.48935 9.71501 4.49907 9.74987 4.49907C9.78473 4.49907 9.8189 4.48935 9.84855 4.47101C9.87819 4.45266 9.90213 4.42641 9.91768 4.39521L10.4999 2.9988L11.8963 2.41662C11.9275 2.40107 11.9537 2.37712 11.9721 2.34748C11.9904 2.31784 12.0001 2.28367 12.0001 2.2488C12.0001 2.21394 11.9904 2.17977 11.9721 2.15013C11.9537 2.12048 11.9275 2.09654 11.8963 2.08099L10.4999 1.4988L9.91768 0.102398C9.90213 0.0711964 9.87819 0.0449483 9.84855 0.0266014C9.8189 0.0082544 9.78473 -0.00146484 9.74987 -0.00146484C9.71501 -0.00146484 9.68083 0.0082544 9.65119 0.0266014C9.62155 0.0449483 9.59761 0.0711964 9.58206 0.102398L8.99987 1.4988L7.60346 2.08099C7.57226 2.09654 7.54601 2.12048 7.52767 2.15013C7.50932 2.17977 7.4996 2.21394 7.4996 2.2488C7.4996 2.28367 7.50932 2.31784 7.52767 2.34748C7.54601 2.37712 7.57226 2.40107 7.60346 2.41662ZM11.8963 9.58099L10.4999 8.9988L9.91768 7.6024C9.90213 7.5712 9.87819 7.54495 9.84855 7.5266C9.8189 7.50826 9.78473 7.49854 9.74987 7.49854C9.71501 7.49854 9.68083 7.50826 9.65119 7.5266C9.62155 7.54495 9.59761 7.5712 9.58206 7.6024L8.99987 8.9988L7.60346 9.58099C7.57226 9.59654 7.54601 9.62048 7.52767 9.65013C7.50932 9.67977 7.4996 9.71394 7.4996 9.7488C7.4996 9.78367 7.50932 9.81784 7.52767 9.84748C7.54601 9.87712 7.57226 9.90107 7.60346 9.91662L8.99987 10.4988L9.58206 11.8952C9.59761 11.9264 9.62155 11.9527 9.65119 11.971C9.68083 11.9894 9.71501 11.9991 9.74987 11.9991C9.78473 11.9991 9.8189 11.9894 9.84855 11.971C9.87819 11.9527 9.90213 11.9264 9.91768 11.8952L10.4999 10.4988L11.8963 9.91662C11.9275 9.90107 11.9537 9.87712 11.9721 9.84748C11.9904 9.81784 12.0001 9.78367 12.0001 9.7488C12.0001 9.71394 11.9904 9.67977 11.9721 9.65013C11.9537 9.62048 11.9275 9.59654 11.8963 9.58099ZM8.99987 5.9988C8.99986 5.89429 8.97073 5.79185 8.91575 5.70297C8.86077 5.61409 8.78212 5.54228 8.68862 5.4956L6.2312 4.26701L5.00307 1.80982C4.81252 1.42896 4.18721 1.42896 3.99667 1.80982L2.76831 4.26701L0.311118 5.4956C0.217637 5.5423 0.139013 5.61412 0.0840606 5.703C0.0291081 5.79188 0 5.89431 0 5.9988C0 6.1033 0.0291081 6.20573 0.0840606 6.29461C0.139013 6.38349 0.217637 6.45531 0.311118 6.50201L2.76831 7.7306L3.99667 10.188C4.04336 10.2815 4.11518 10.3601 4.20406 10.4151C4.29294 10.47 4.39537 10.4991 4.49987 10.4991C4.60436 10.4991 4.70679 10.47 4.79568 10.4151C4.88456 10.3601 4.95637 10.2815 5.00307 10.188L6.2312 7.7306L8.68862 6.50201C8.78212 6.45533 8.86077 6.38352 8.91575 6.29464C8.97073 6.20575 8.99986 6.10331 8.99987 5.9988ZM5.56112 6.8081C5.45209 6.8625 5.36367 6.95084 5.30917 7.05982L4.49987 8.67841L3.69057 7.05982C3.63607 6.95084 3.54765 6.8625 3.43862 6.8081L1.82002 5.9988L3.43862 5.18951C3.54761 5.13517 3.63603 5.04692 3.69057 4.93802L4.49987 3.31919L5.30917 4.93802C5.36371 5.04692 5.45212 5.13517 5.56112 5.18951L7.17971 5.9988L5.56112 6.8081Z" fill="#697386"/>
</svg>
