<svg width="621" height="792" viewBox="0 0 621 792" fill="none" xmlns="http://www.w3.org/2000/svg">
<circle cx="181" cy="350" r="10" fill="white"/>
<circle cx="181" cy="10" r="10" fill="white"/>
<path d="M621 453.5C621 620.566 481.984 756 310.5 756C139.016 756 0 620.566 0 453.5C0 286.434 139.016 151 310.5 151C481.984 151 621 286.434 621 453.5Z" fill="#5DB9D7"/>
<path d="M309.767 177.876C346.676 177.976 383.202 185.363 417.263 199.613C451.323 213.863 482.249 234.698 508.276 260.928L309 459.585L309.767 177.876Z" fill="#94F3E7"/>
<path d="M114.951 259.906C140.785 233.737 171.608 212.925 205.66 198.658C239.713 184.391 276.327 176.948 313.413 176.754L317.61 457.091L114.951 259.906Z" fill="#75C6DF"/>
<path d="M184.454 245.968L197.636 267.906L193.492 270.396L180.311 248.458L184.454 245.968ZM198.993 250.131L200.958 253.401L191.028 259.367L189.064 256.097L198.993 250.131ZM194.459 239.956L196.423 243.226L185.334 249.889L183.369 246.62L194.459 239.956ZM205.948 245.255L213.743 258.228L209.765 260.618L199.969 244.315L203.736 242.052L205.948 245.255ZM208.841 238.841L211.008 242.584C210.763 242.676 210.493 242.797 210.2 242.946C209.917 243.089 209.655 243.233 209.414 243.378C208.801 243.746 208.315 244.154 207.955 244.602C207.59 245.041 207.345 245.509 207.221 246.008C207.106 246.5 207.105 247.021 207.216 247.569C207.32 248.108 207.532 248.664 207.85 249.239L206.927 249.65C206.306 248.615 205.835 247.592 205.515 246.582C205.195 245.571 205.036 244.613 205.04 243.709C205.043 242.805 205.237 241.991 205.623 241.267C206.012 240.527 206.604 239.919 207.397 239.442C207.618 239.309 207.866 239.187 208.142 239.077C208.421 238.95 208.654 238.871 208.841 238.841ZM228.087 250.019C226.852 250.761 225.621 251.227 224.395 251.417C223.17 251.607 221.996 251.553 220.874 251.257C219.757 250.944 218.725 250.422 217.78 249.691C216.839 248.944 216.037 248.018 215.373 246.913L215.011 246.31C214.256 245.055 213.752 243.806 213.498 242.564C213.238 241.312 213.216 240.115 213.432 238.974C213.649 237.832 214.098 236.783 214.781 235.826C215.464 234.869 216.362 234.055 217.477 233.385C218.633 232.691 219.77 232.274 220.889 232.135C222.002 231.985 223.067 232.084 224.082 232.431C225.097 232.778 226.051 233.354 226.944 234.157C227.831 234.95 228.63 235.939 229.342 237.125L230.347 238.797L217.57 246.475L215.922 243.732L224.782 238.409L224.601 238.107C224.201 237.487 223.733 236.982 223.198 236.592C222.657 236.192 222.062 235.976 221.413 235.942C220.758 235.898 220.064 236.097 219.33 236.537C218.738 236.893 218.299 237.335 218.014 237.861C217.733 238.372 217.588 238.951 217.581 239.598C217.577 240.229 217.698 240.908 217.944 241.636C218.19 242.363 218.548 243.119 219.019 243.902L219.381 244.505C219.791 245.188 220.262 245.766 220.793 246.24C221.334 246.708 221.915 247.05 222.536 247.264C223.161 247.463 223.802 247.529 224.459 247.462C225.12 247.379 225.782 247.139 226.445 246.74C227.279 246.239 227.936 245.626 228.416 244.9C228.9 244.158 229.2 243.315 229.316 242.37L232.569 243.245C232.529 243.953 232.357 244.713 232.052 245.525C231.757 246.331 231.29 247.124 230.651 247.904C230.007 248.674 229.152 249.379 228.087 250.019ZM244.692 240.042C243.456 240.785 242.225 241.251 241 241.44C239.774 241.63 238.6 241.577 237.478 241.28C236.361 240.967 235.329 240.445 234.384 239.714C233.443 238.967 232.641 238.041 231.977 236.936L231.615 236.333C230.86 235.078 230.356 233.829 230.102 232.587C229.842 231.335 229.82 230.139 230.037 228.997C230.253 227.855 230.702 226.806 231.385 225.849C232.068 224.892 232.967 224.078 234.082 223.408C235.237 222.714 236.374 222.297 237.493 222.158C238.607 222.009 239.671 222.107 240.686 222.454C241.701 222.801 242.655 223.377 243.548 224.18C244.435 224.973 245.234 225.963 245.947 227.148L246.952 228.82L234.174 236.498L232.527 233.755L241.386 228.432L241.205 228.131C240.805 227.51 240.337 227.005 239.802 226.615C239.262 226.216 238.667 225.999 238.017 225.965C237.362 225.921 236.668 226.12 235.935 226.56C235.342 226.916 234.903 227.358 234.618 227.885C234.337 228.395 234.193 228.974 234.185 229.621C234.181 230.252 234.302 230.932 234.548 231.659C234.794 232.386 235.152 233.142 235.623 233.925L235.985 234.528C236.395 235.211 236.866 235.79 237.397 236.263C237.938 236.731 238.519 237.073 239.14 237.287C239.765 237.486 240.406 237.552 241.063 237.485C241.725 237.402 242.387 237.162 243.05 236.763C243.883 236.262 244.54 235.649 245.02 234.923C245.504 234.181 245.804 233.338 245.92 232.393L249.173 233.269C249.133 233.976 248.961 234.736 248.656 235.548C248.361 236.354 247.894 237.147 247.256 237.927C246.611 238.698 245.756 239.402 244.692 240.042ZM231.604 295.052L236.737 303.596C236.663 304.201 236.424 304.952 236.021 305.851C235.628 306.744 234.984 307.698 234.09 308.713C233.191 309.718 231.937 310.704 230.33 311.67C228.934 312.509 227.519 313.044 226.086 313.276C224.648 313.498 223.24 313.408 221.863 313.005C220.486 312.601 219.179 311.883 217.942 310.849C216.706 309.814 215.583 308.458 214.576 306.781L213.706 305.334C212.698 303.657 212.013 302.039 211.65 300.479C211.298 298.914 211.247 297.441 211.497 296.06C211.757 294.673 212.303 293.408 213.134 292.266C213.976 291.118 215.09 290.128 216.476 289.295C218.334 288.178 220.045 287.567 221.609 287.462C223.182 287.35 224.613 287.639 225.902 288.327C227.185 289.006 228.323 289.99 229.316 291.279L225.278 293.706C224.709 293.009 224.087 292.474 223.411 292.1C222.73 291.717 221.986 291.548 221.18 291.595C220.378 291.626 219.495 291.931 218.531 292.51C217.717 292.999 217.095 293.591 216.666 294.287C216.236 294.983 215.994 295.764 215.941 296.63C215.887 297.496 216.021 298.448 216.344 299.484C216.676 300.515 217.192 301.613 217.892 302.778L218.779 304.255C219.486 305.43 220.234 306.403 221.024 307.172C221.808 307.931 222.614 308.486 223.44 308.837C224.27 309.172 225.118 309.299 225.984 309.216C226.855 309.117 227.722 308.807 228.585 308.288C229.369 307.818 229.978 307.363 230.411 306.925C230.849 306.47 231.167 306.054 231.363 305.676C231.56 305.298 231.689 304.967 231.752 304.684L229.28 300.571L224.925 303.187L223.106 300.158L231.604 295.052ZM236.46 285.387L246.256 301.69L242.263 304.089L232.467 287.787L236.46 285.387ZM229.634 283.685C229.278 283.093 229.183 282.48 229.35 281.847C229.526 281.207 229.961 280.68 230.654 280.263C231.347 279.847 232.012 279.714 232.649 279.864C233.297 280.008 233.798 280.377 234.154 280.969C234.504 281.552 234.591 282.163 234.415 282.802C234.248 283.435 233.819 283.96 233.125 284.377C232.432 284.793 231.762 284.929 231.115 284.785C230.478 284.634 229.984 284.268 229.634 283.685ZM255.266 296.276L251.258 298.685L240.557 280.875C239.821 279.649 239.438 278.478 239.409 277.361C239.375 276.233 239.664 275.191 240.279 274.234C240.893 273.277 241.793 272.442 242.978 271.73C243.37 271.495 243.757 271.296 244.139 271.135C244.53 270.968 244.929 270.824 245.335 270.704L247.079 273.777C246.858 273.842 246.626 273.933 246.383 274.052C246.15 274.165 245.898 274.303 245.627 274.466C245.084 274.792 244.68 275.165 244.413 275.585C244.146 276.005 244.023 276.461 244.046 276.954C244.072 277.43 244.245 277.934 244.565 278.467L255.266 296.276ZM248.77 277.991L250.49 280.854L240.727 286.72L239.007 283.857L248.77 277.991ZM258.941 271.88L260.661 274.743L251.319 280.356L249.599 277.493L258.941 271.88ZM249.692 271.982L253.685 269.583L263.064 285.193C263.354 285.675 263.642 286.007 263.93 286.19C264.218 286.373 264.519 286.431 264.835 286.364C265.15 286.298 265.489 286.156 265.85 285.939C266.111 285.782 266.343 285.622 266.546 285.459C266.749 285.296 266.917 285.154 267.049 285.033L268.857 288.008C268.592 288.317 268.27 288.634 267.89 288.958C267.52 289.276 267.074 289.592 266.552 289.905C265.658 290.443 264.784 290.763 263.93 290.866C263.07 290.959 262.249 290.775 261.467 290.316C260.679 289.846 259.943 289.043 259.261 287.908L249.692 271.982Z" fill="white"/>
<path d="M32.9998 456.172C32.9998 419.531 40.3396 383.248 54.6 349.396C68.8604 315.544 89.7622 284.785 116.112 258.876L316.763 456.172L32.9998 456.172Z" fill="#94F3E7"/>
<path d="M92.1885 375.483L95.4593 377.117L87.7132 392.621L84.9142 391.223L80.5947 379.771C80.1016 378.555 79.6428 377.559 79.218 376.784C78.7932 376.008 78.3659 375.395 77.936 374.945C77.5009 374.478 77.0422 374.125 76.56 373.884C75.8576 373.533 75.1815 373.352 74.5316 373.342C73.8713 373.327 73.2739 373.487 72.7394 373.822C72.2102 374.147 71.7728 374.656 71.4271 375.348C71.0448 376.113 70.8957 376.857 70.9797 377.581C71.0586 378.288 71.3366 378.938 71.8137 379.53C72.296 380.111 72.9355 380.601 73.7323 380.999L71.6504 385.166C70.2981 384.491 69.2234 383.561 68.4264 382.377C67.619 381.187 67.1731 379.838 67.0887 378.329C67.0044 376.819 67.3655 375.257 68.172 373.643C68.9576 372.071 69.8848 370.87 70.9537 370.042C72.0121 369.208 73.1596 368.746 74.3964 368.657C75.6332 368.567 76.9121 368.853 78.233 369.513C78.9668 369.879 79.6299 370.361 80.2223 370.958C80.8147 371.556 81.3521 372.25 81.8345 373.041C82.3117 373.817 82.7575 374.681 83.1718 375.635C83.5861 376.589 83.9821 377.618 84.3598 378.724L87.0978 385.672L92.1885 375.483ZM91.0647 352.363L94.9173 354.288C96.6785 355.168 98.0938 356.098 99.1632 357.077C100.233 358.057 100.998 359.081 101.46 360.15C101.911 361.214 102.092 362.307 102.003 363.428C101.904 364.544 101.569 365.674 100.998 366.817C100.542 367.729 100.003 368.52 99.3794 369.191C98.7455 369.857 98.0251 370.381 97.2181 370.764C96.4059 371.131 95.4993 371.346 94.4984 371.41C93.5026 371.462 92.4046 371.34 91.2044 371.041C90.0094 370.732 88.7095 370.227 87.3048 369.525L83.4522 367.601C81.691 366.721 80.2809 365.794 79.2219 364.819C78.1682 363.834 77.4158 362.81 76.9648 361.746C76.5137 360.682 76.343 359.595 76.4527 358.484C76.5519 357.368 76.887 356.238 77.4579 355.095C77.9187 354.173 78.4583 353.381 79.0765 352.721C79.6999 352.05 80.4125 351.528 81.2142 351.156C82.0107 350.768 82.9068 350.547 83.9025 350.495C84.8878 350.437 85.9779 350.562 87.1729 350.871C88.3626 351.164 89.6599 351.661 91.0647 352.363ZM93.4094 358.722L88.4088 356.224C87.5282 355.784 86.7368 355.454 86.0344 355.234C85.3269 354.999 84.6953 354.86 84.1398 354.818C83.5842 354.776 83.0942 354.826 82.6698 354.968C82.2348 355.104 81.8576 355.322 81.538 355.621C81.2184 355.92 80.9486 356.289 80.7286 356.73C80.4563 357.275 80.3228 357.817 80.3283 358.357C80.3232 358.891 80.478 359.421 80.7926 359.945C81.1072 360.469 81.6079 361 82.2946 361.54C82.9761 362.064 83.8619 362.598 84.9522 363.143L89.9527 365.641C90.8333 366.081 91.6274 366.419 92.335 366.654C93.0478 366.88 93.6872 367.016 94.2532 367.063C94.8245 367.099 95.3302 367.057 95.7704 366.936C96.2054 366.8 96.5879 366.585 96.9179 366.291C97.2375 365.992 97.5073 365.623 97.7273 365.183C98.0048 364.627 98.1383 364.084 98.1277 363.555C98.1222 363.015 97.957 362.481 97.6319 361.952C97.2963 361.417 96.7825 360.885 96.0906 360.356C95.3934 359.812 94.4996 359.267 93.4094 358.722ZM88.7597 347.301L87.5489 346.696C86.6787 346.262 85.9815 345.678 85.4572 344.944C84.9329 344.211 84.6365 343.375 84.5681 342.437C84.5049 341.488 84.7351 340.49 85.2589 339.441C85.7931 338.372 86.4558 337.583 87.247 337.074C88.0434 336.555 88.8897 336.29 89.7859 336.28C90.6873 336.258 91.5731 336.465 92.4432 336.9L93.654 337.505C94.5031 337.929 95.1899 338.508 95.7142 339.241C96.2437 339.964 96.5427 340.795 96.6112 341.733C96.6796 342.671 96.4493 343.67 95.9204 344.728C95.3914 345.787 94.7287 346.576 93.9323 347.095C93.1358 347.614 92.2869 347.885 91.3855 347.906C90.4841 347.927 89.6088 347.726 88.7597 347.301ZM88.9551 343.882L90.1659 344.487C90.5643 344.686 90.9783 344.801 91.4081 344.832C91.8326 344.848 92.2335 344.753 92.6108 344.549C92.988 344.344 93.2945 344.006 93.5302 343.534C93.7659 343.063 93.847 342.625 93.7734 342.221C93.7052 341.807 93.5347 341.441 93.2621 341.121C92.9842 340.786 92.6461 340.518 92.2478 340.319L91.0369 339.715C90.6281 339.51 90.2062 339.398 89.7712 339.377C89.3414 339.346 88.9379 339.432 88.5606 339.637C88.1886 339.831 87.8848 340.164 87.6491 340.635C87.4186 341.097 87.3349 341.54 87.3979 341.964C87.4662 342.378 87.6393 342.753 87.9172 343.088C88.2003 343.413 88.5462 343.677 88.9551 343.882ZM107.13 342.744L105.919 342.139C105.059 341.709 104.367 341.128 103.843 340.394C103.324 339.65 103.033 338.804 102.97 337.855C102.906 336.907 103.134 335.914 103.653 334.876C104.192 333.796 104.857 333.002 105.649 332.493C106.44 331.985 107.283 331.725 108.18 331.714C109.081 331.693 109.961 331.897 110.821 332.326L112.032 332.931C112.892 333.361 113.584 333.942 114.108 334.676C114.637 335.399 114.936 336.229 115.005 337.168C115.079 338.095 114.851 339.088 114.322 340.147C113.793 341.206 113.128 342 112.326 342.53C111.529 343.049 110.678 343.324 109.771 343.356C108.87 343.377 107.989 343.173 107.13 342.744ZM107.333 339.308L108.544 339.913C108.953 340.117 109.377 340.225 109.817 340.235C110.247 340.24 110.651 340.141 111.028 339.936C111.41 339.721 111.709 339.399 111.924 338.969C112.186 338.445 112.283 337.976 112.214 337.562C112.146 337.148 111.97 336.791 111.687 336.493C111.394 336.189 111.042 335.935 110.634 335.73L109.423 335.125C109.014 334.921 108.597 334.811 108.173 334.796C107.738 334.775 107.332 334.867 106.954 335.071C106.582 335.265 106.278 335.598 106.043 336.07C105.812 336.531 105.729 336.974 105.792 337.399C105.86 337.813 106.033 338.187 106.311 338.523C106.583 338.842 106.924 339.104 107.333 339.308ZM94.8776 329.195L107.187 349.316L105.01 350.802L92.7006 330.682L94.8776 329.195ZM133.52 391.671L134.699 392.26C136.429 393.124 137.871 394.133 139.024 395.285C140.167 396.433 141.008 397.672 141.549 399.003C142.089 400.334 142.323 401.715 142.25 403.145C142.177 404.576 141.782 406.01 141.064 407.446C140.357 408.861 139.451 410.033 138.345 410.961C137.245 411.878 135.998 412.526 134.604 412.904C133.21 413.281 131.709 413.363 130.1 413.149C128.48 412.929 126.805 412.387 125.076 411.523L123.896 410.934C122.156 410.065 120.717 409.051 119.58 407.893C118.442 406.735 117.603 405.491 117.063 404.16C116.512 402.824 116.273 401.44 116.346 400.009C116.424 398.568 116.817 397.14 117.524 395.725C118.241 394.288 119.15 393.112 120.251 392.194C121.351 391.277 122.6 390.637 124 390.275C125.394 389.897 126.892 389.82 128.496 390.045C130.105 390.26 131.78 390.801 133.52 391.671ZM132.515 396.632L131.305 396.027C130.057 395.403 128.904 394.971 127.845 394.731C126.776 394.485 125.804 394.425 124.929 394.551C124.054 394.677 123.288 394.989 122.634 395.487C121.968 395.98 121.429 396.64 121.015 397.469C120.596 398.307 120.392 399.135 120.402 399.953C120.408 400.755 120.623 401.544 121.048 402.319C121.473 403.095 122.102 403.841 122.935 404.559C123.763 405.261 124.801 405.923 126.049 406.547L127.26 407.152C128.497 407.77 129.65 408.202 130.719 408.448C131.793 408.683 132.774 408.74 133.659 408.62C134.54 408.483 135.31 408.174 135.97 407.691C136.63 407.209 137.17 406.548 137.589 405.71C138.008 404.871 138.212 404.043 138.201 403.225C138.19 402.408 137.97 401.616 137.54 400.851C137.105 400.071 136.468 399.327 135.629 398.619C134.79 397.912 133.752 397.25 132.515 396.632ZM126.645 378.254L149.54 389.693L147.38 394.017L124.485 382.578L126.645 378.254ZM141.147 373.965L144.56 375.67L139.383 386.033L135.97 384.328L141.147 373.965ZM131.861 367.813L135.274 369.518L129.492 381.091L126.079 379.386L131.861 367.813ZM135.491 360.548L158.386 371.986L156.226 376.311L133.33 364.872L135.491 360.548ZM149.993 356.259L153.406 357.964L148.228 368.326L144.816 366.621L149.993 356.259ZM140.707 350.107L144.12 351.811L138.338 363.385L134.925 361.68L140.707 350.107Z" fill="#4DA9C6"/>
<path d="M310.703 733.037C273.8 732.388 237.387 724.46 203.543 709.705C169.698 694.951 139.085 673.658 113.451 647.044L315.656 451.37L310.703 733.037Z" fill="#94F3E7"/>
<path d="M590.014 458.652C590.014 422.01 582.674 385.728 568.414 351.876C554.153 318.024 533.251 287.265 506.902 261.355L306.251 458.652L590.014 458.652Z" fill="#85D2EB"/>
<path d="M502.696 333.871L500.909 330.499L511.529 323.004L520.859 333.549L517.976 336.1L511.197 328.438L506.278 331.898C506.686 332.023 507.202 332.27 507.827 332.64C508.468 333.012 509.08 333.526 509.663 334.185C510.47 335.097 511.043 336.046 511.382 337.029C511.729 338.005 511.847 338.988 511.737 339.977C511.635 340.976 511.297 341.955 510.723 342.917C510.166 343.879 509.388 344.803 508.387 345.688C507.51 346.464 506.568 347.063 505.563 347.483C504.574 347.904 503.548 348.115 502.486 348.117C501.432 348.11 500.38 347.859 499.331 347.364C498.291 346.86 497.293 346.069 496.338 344.989C495.616 344.173 495.039 343.283 494.609 342.318C494.194 341.355 493.956 340.369 493.893 339.361C493.839 338.344 493.995 337.354 494.361 336.388C494.735 335.431 495.349 334.543 496.205 333.724L499.245 337.16C498.711 337.741 498.351 338.342 498.163 338.961C497.976 339.581 497.955 340.194 498.101 340.801C498.254 341.416 498.576 342 499.065 342.553C499.507 343.053 499.98 343.402 500.483 343.599C501.002 343.796 501.538 343.862 502.09 343.796C502.642 343.73 503.201 343.549 503.767 343.251C504.333 342.954 504.892 342.56 505.445 342.071C505.98 341.597 506.409 341.101 506.732 340.581C507.063 340.053 507.27 339.509 507.354 338.95C507.438 338.391 507.386 337.827 507.196 337.259C507.014 336.7 506.683 336.149 506.201 335.605C505.557 334.876 504.95 334.412 504.381 334.211C503.82 334.019 503.258 333.906 502.696 333.871ZM526.911 356.383L523.686 359.237C522.211 360.542 520.82 361.507 519.512 362.133C518.203 362.758 516.967 363.086 515.803 363.114C514.648 363.135 513.567 362.894 512.56 362.393C511.561 361.884 510.639 361.151 509.792 360.194C509.117 359.43 508.584 358.634 508.195 357.805C507.814 356.968 507.597 356.104 507.544 355.213C507.507 354.322 507.646 353.401 507.962 352.449C508.285 351.505 508.809 350.533 509.535 349.531C510.268 348.538 511.222 347.521 512.398 346.481L515.624 343.627C517.098 342.322 518.485 341.361 519.785 340.743C521.092 340.134 522.323 339.819 523.479 339.798C524.634 339.777 525.706 340.026 526.696 340.543C527.694 341.052 528.617 341.785 529.463 342.741C530.146 343.514 530.679 344.31 531.06 345.13C531.45 345.959 531.667 346.815 531.713 347.698C531.775 348.582 531.645 349.495 531.321 350.439C531.007 351.374 530.483 352.338 529.75 353.331C529.033 354.325 528.087 355.343 526.911 356.383ZM520.137 356.181L524.323 352.477C525.06 351.824 525.662 351.214 526.128 350.644C526.612 350.076 526.976 349.542 527.223 349.043C527.469 348.543 527.606 348.07 527.633 347.623C527.669 347.169 527.608 346.738 527.451 346.329C527.293 345.921 527.051 345.533 526.725 345.164C526.321 344.708 525.868 344.381 525.365 344.185C524.871 343.98 524.322 343.926 523.719 344.022C523.115 344.118 522.435 344.383 521.678 344.819C520.937 345.255 520.11 345.877 519.198 346.684L515.011 350.389C514.274 351.041 513.664 351.651 513.181 352.22C512.706 352.797 512.341 353.339 512.085 353.846C511.838 354.362 511.688 354.847 511.635 355.301C511.599 355.755 511.656 356.19 511.805 356.606C511.962 357.014 512.204 357.403 512.531 357.771C512.942 358.236 513.395 358.563 513.89 358.751C514.393 358.948 514.951 358.994 515.563 358.89C516.184 358.779 516.869 358.501 517.619 358.057C518.385 357.614 519.224 356.989 520.137 356.181ZM532.468 356.137L533.481 355.24C534.21 354.596 535.012 354.168 535.888 353.955C536.765 353.743 537.651 353.781 538.546 354.068C539.45 354.364 540.29 354.951 541.066 355.828C541.859 356.723 542.343 357.633 542.519 358.557C542.702 359.49 542.632 360.374 542.307 361.209C541.99 362.053 541.467 362.797 540.738 363.442L539.725 364.339C539.014 364.968 538.22 365.388 537.344 365.6C536.475 365.821 535.593 365.788 534.697 365.501C533.802 365.214 532.962 364.627 532.177 363.741C531.393 362.854 530.909 361.945 530.725 361.012C530.542 360.079 530.608 359.191 530.925 358.347C531.243 357.503 531.757 356.766 532.468 356.137ZM535.566 357.597L534.553 358.494C534.219 358.789 533.958 359.13 533.768 359.517C533.595 359.905 533.533 360.312 533.581 360.738C533.63 361.165 533.829 361.575 534.178 361.97C534.528 362.365 534.904 362.604 535.305 362.687C535.715 362.778 536.119 362.757 536.517 362.624C536.932 362.491 537.306 362.277 537.64 361.982L538.653 361.085C538.996 360.783 539.258 360.433 539.44 360.038C539.629 359.651 539.7 359.244 539.651 358.818C539.61 358.4 539.415 357.994 539.065 357.599C538.724 357.213 538.344 356.97 537.927 356.869C537.518 356.778 537.105 356.798 536.69 356.931C536.283 357.072 535.909 357.294 535.566 357.597ZM529.828 374.879L530.842 373.983C531.562 373.346 532.36 372.921 533.236 372.709C534.12 372.506 535.014 372.552 535.917 372.848C536.821 373.144 537.657 373.726 538.426 374.595C539.226 375.499 539.714 376.413 539.89 377.337C540.066 378.261 539.991 379.141 539.666 379.976C539.349 380.82 538.83 381.56 538.111 382.197L537.097 383.094C536.377 383.731 535.579 384.155 534.703 384.367C533.834 384.588 532.952 384.555 532.057 384.268C531.169 383.99 530.333 383.407 529.548 382.521C528.764 381.634 528.276 380.72 528.085 379.779C527.901 378.846 527.964 377.953 528.273 377.101C528.59 376.257 529.109 375.516 529.828 374.879ZM532.939 376.352L531.925 377.249C531.583 377.552 531.325 377.906 531.15 378.31C530.985 378.707 530.927 379.118 530.975 379.545C531.032 379.98 531.219 380.377 531.538 380.737C531.926 381.176 532.325 381.441 532.734 381.532C533.144 381.624 533.54 381.594 533.923 381.443C534.314 381.284 534.681 381.054 535.024 380.751L536.037 379.854C536.38 379.551 536.637 379.206 536.81 378.818C536.992 378.422 537.059 378.011 537.01 377.585C536.969 377.167 536.774 376.761 536.425 376.366C536.083 375.98 535.704 375.736 535.286 375.636C534.877 375.545 534.465 375.565 534.05 375.698C533.651 375.831 533.281 376.049 532.939 376.352ZM546.975 368.58L523.711 372.476L523.146 369.901L546.41 366.005L546.975 368.58ZM474.583 381.068L473.596 381.942C472.148 383.223 470.674 384.183 469.174 384.822C467.682 385.454 466.218 385.771 464.782 385.774C463.345 385.778 461.977 385.479 460.678 384.876C459.378 384.274 458.196 383.371 457.132 382.169C456.084 380.984 455.336 379.706 454.888 378.333C454.448 376.97 454.314 375.571 454.485 374.137C454.655 372.703 455.141 371.28 455.941 369.868C456.75 368.448 457.878 367.097 459.326 365.816L460.314 364.942C461.771 363.653 463.249 362.697 464.748 362.075C466.247 361.452 467.715 361.139 469.151 361.136C470.596 361.124 471.969 361.42 473.269 362.022C474.576 362.634 475.754 363.532 476.803 364.716C477.867 365.919 478.618 367.202 479.058 368.565C479.498 369.929 479.624 371.327 479.437 372.76C479.266 374.194 478.777 375.613 477.969 377.016C477.169 378.429 476.04 379.779 474.583 381.068ZM470.358 378.282L471.371 377.385C472.416 376.461 473.247 375.553 473.866 374.661C474.494 373.761 474.913 372.882 475.123 372.023C475.334 371.164 475.33 370.338 475.113 369.545C474.905 368.743 474.494 367.996 473.88 367.302C473.259 366.6 472.567 366.101 471.805 365.806C471.059 365.511 470.247 365.416 469.369 365.52C468.491 365.624 467.563 365.929 466.586 366.433C465.625 366.939 464.623 367.654 463.578 368.578L462.565 369.475C461.529 370.392 460.698 371.3 460.07 372.199C459.45 373.108 459.03 373.996 458.811 374.862C458.609 375.73 458.608 376.56 458.808 377.353C459.009 378.145 459.42 378.893 460.041 379.595C460.663 380.297 461.354 380.796 462.117 381.091C462.879 381.387 463.695 381.478 464.566 381.365C465.452 381.254 466.381 380.941 467.35 380.427C468.32 379.914 469.322 379.199 470.358 378.282ZM489.597 379.707L470.43 396.667L467.227 393.047L486.394 376.086L489.597 379.707ZM488.155 394.761L485.298 397.289L477.622 388.614L480.478 386.086L488.155 394.761ZM497.332 388.448L494.475 390.976L485.902 381.287L488.759 378.759L497.332 388.448ZM502.714 394.53L483.546 411.49L480.343 407.87L499.51 390.91L502.714 394.53ZM501.271 409.584L498.414 412.112L490.738 403.437L493.595 400.909L501.271 409.584ZM510.448 403.271L507.592 405.799L499.018 396.11L501.875 393.582L510.448 403.271Z" fill="#4DA9C6"/>
<path d="M589.763 455.876C589.763 492.517 582.423 528.8 568.163 562.652C553.902 596.504 533 627.263 506.65 653.172L306 455.876L589.763 455.876Z" fill="#94F3E7"/>
<path d="M32.7655 448.881C32.4024 485.52 39.3821 521.874 53.3064 555.866C67.2306 589.857 87.8265 620.822 113.918 646.991L316.514 451.693L32.7655 448.881Z" fill="#85D2EB"/>
<path d="M106.24 551.054L109.587 549.583L116.56 565.451L113.695 566.709L102.127 562.711C100.877 562.313 99.8177 562.029 98.9498 561.86C98.0819 561.691 97.3373 561.628 96.7161 561.671C96.0793 561.707 95.5142 561.834 95.0207 562.051C94.3019 562.367 93.7308 562.771 93.3075 563.264C92.8735 563.762 92.6147 564.324 92.5312 564.95C92.4429 565.564 92.5544 566.226 92.8655 566.934C93.2096 567.717 93.6867 568.307 94.2966 568.705C94.8911 569.097 95.5685 569.298 96.3287 569.31C97.0843 569.311 97.8698 569.132 98.6851 568.774L100.559 573.038C99.1751 573.646 97.773 573.878 96.3529 573.734C94.9221 573.595 93.5994 573.076 92.3847 572.176C91.1701 571.276 90.1998 570 89.4738 568.347C88.7666 566.738 88.4361 565.258 88.4823 563.906C88.5177 562.559 88.8963 561.382 89.618 560.374C90.3397 559.365 91.3765 558.564 92.7283 557.97C93.4793 557.64 94.2738 557.438 95.1118 557.364C95.9498 557.29 96.8272 557.321 97.744 557.456C98.6454 557.584 99.5952 557.794 100.593 558.085C101.592 558.376 102.637 558.73 103.728 559.146L110.822 561.482L106.24 551.054ZM87.7418 537.14L91.6846 535.408C93.487 534.615 95.1067 534.121 96.5437 533.925C97.9807 533.729 99.2577 533.795 100.375 534.123C101.481 534.456 102.437 535.015 103.243 535.801C104.038 536.59 104.693 537.57 105.207 538.74C105.617 539.673 105.88 540.594 105.998 541.502C106.105 542.415 106.048 543.304 105.826 544.17C105.589 545.029 105.175 545.864 104.584 546.674C103.988 547.473 103.192 548.239 102.195 548.972C101.194 549.693 99.9745 550.37 98.5368 551.002L94.5941 552.734C92.7916 553.526 91.1773 554.018 89.751 554.209C88.32 554.39 87.0514 554.314 85.945 553.981C84.8386 553.648 83.8933 553.084 83.1089 552.29C82.3139 551.5 81.6594 550.52 81.1455 549.351C80.7307 548.407 80.4668 547.486 80.354 546.588C80.2364 545.68 80.2907 544.798 80.5168 543.944C80.7275 543.083 81.1308 542.253 81.7267 541.454C82.3119 540.659 83.1052 539.901 84.1065 539.179C85.0924 538.451 86.3042 537.772 87.7418 537.14ZM94.1308 539.401L89.0132 541.65C88.112 542.046 87.3524 542.444 86.7344 542.844C86.1009 543.237 85.5905 543.634 85.2033 544.035C84.8161 544.435 84.5413 544.844 84.379 545.261C84.2058 545.683 84.132 546.112 84.1576 546.549C84.1831 546.985 84.2949 547.429 84.4929 547.88C84.738 548.438 85.0699 548.887 85.4885 549.228C85.8963 549.574 86.4023 549.793 87.0064 549.886C87.6104 549.979 88.3394 549.934 89.1933 549.75C90.0318 549.561 91.0089 549.221 92.1247 548.731L97.2422 546.482C98.1435 546.086 98.9108 545.692 99.5443 545.298C100.173 544.894 100.686 544.489 101.084 544.084C101.478 543.668 101.768 543.252 101.957 542.836C102.13 542.415 102.209 541.983 102.194 541.541C102.169 541.105 102.057 540.661 101.859 540.21C101.609 539.642 101.277 539.192 100.864 538.862C100.445 538.521 99.9283 538.307 99.3135 538.219C98.688 538.135 97.9506 538.19 97.1014 538.384C96.2368 538.572 95.2466 538.911 94.1308 539.401ZM82.3757 535.677L81.1365 536.222C80.246 536.613 79.3512 536.776 78.4519 536.71C77.5526 536.644 76.7204 536.338 75.9553 535.791C75.1854 535.233 74.5647 534.418 74.0933 533.345C73.6124 532.251 73.4293 531.237 73.5439 530.303C73.6538 529.359 73.991 528.539 74.5555 527.843C75.1154 527.136 75.8405 526.587 76.731 526.196L77.9702 525.651C78.8392 525.269 79.7233 525.111 80.6226 525.177C81.5171 525.232 82.347 525.533 83.1122 526.08C83.8773 526.627 84.498 527.442 84.9741 528.526C85.4503 529.609 85.6334 530.623 85.5235 531.567C85.4137 532.512 85.0788 533.337 84.519 534.044C83.9591 534.751 83.2447 535.295 82.3757 535.677ZM79.8707 533.341L81.1099 532.796C81.5176 532.617 81.8708 532.372 82.1696 532.062C82.4529 531.745 82.6365 531.377 82.7204 530.956C82.8043 530.535 82.7401 530.083 82.528 529.6C82.3158 529.118 82.0311 528.776 81.6738 528.574C81.3118 528.362 80.9208 528.259 80.5007 528.264C80.0652 528.263 79.6436 528.353 79.236 528.532L77.9968 529.076C77.5784 529.26 77.2221 529.513 76.9281 529.834C76.6293 530.144 76.438 530.51 76.3541 530.931C76.2655 531.341 76.3273 531.788 76.5394 532.27C76.7469 532.742 77.034 533.09 77.4007 533.313C77.7627 533.525 78.1615 533.631 78.5969 533.632C79.0277 533.622 79.4523 533.525 79.8707 533.341ZM90.6129 518.637L89.3737 519.181C88.494 519.568 87.6045 519.728 86.7052 519.662C85.8012 519.586 84.9643 519.269 84.1944 518.711C83.4245 518.154 82.8062 517.344 82.3395 516.281C81.854 515.176 81.6685 514.157 81.783 513.224C81.8976 512.29 82.2372 511.475 82.8017 510.779C83.3616 510.072 84.0814 509.526 84.9611 509.139L86.2003 508.595C87.08 508.208 87.9695 508.047 88.8688 508.113C89.7634 508.168 90.5932 508.469 91.3584 509.016C92.1188 509.552 92.7371 510.362 93.2133 511.446C93.6894 512.529 93.8749 513.549 93.7698 514.504C93.6599 515.448 93.3274 516.279 92.7723 516.996C92.2124 517.703 91.4926 518.25 90.6129 518.637ZM88.1009 516.284L89.34 515.74C89.7584 515.556 90.1123 515.298 90.4017 514.966C90.6803 514.639 90.8615 514.265 90.9454 513.844C91.0246 513.412 90.9675 512.977 90.7742 512.537C90.5385 512 90.2396 511.626 89.8776 511.414C89.5156 511.202 89.1293 511.109 88.7187 511.136C88.2973 511.168 87.8774 511.275 87.459 511.459L86.2198 512.004C85.8014 512.187 85.4506 512.438 85.1672 512.754C84.8732 513.075 84.6842 513.446 84.6003 513.867C84.5117 514.277 84.5735 514.724 84.7857 515.207C84.9931 515.679 85.2802 516.026 85.6469 516.249C86.0089 516.461 86.4077 516.568 86.8432 516.568C87.2632 516.563 87.6824 516.468 88.1009 516.284ZM72.3618 519.399L95.7035 522.793L95.4551 525.418L72.1134 522.023L72.3618 519.399ZM145.109 529.616L146.315 529.085C148.086 528.308 149.783 527.844 151.406 527.693C153.019 527.548 154.51 527.693 155.879 528.128C157.248 528.563 158.459 529.266 159.513 530.237C160.567 531.207 161.416 532.428 162.062 533.897C162.699 535.346 163.02 536.792 163.027 538.235C163.03 539.668 162.731 541.041 162.13 542.354C161.53 543.668 160.633 544.875 159.439 545.975C158.235 547.08 156.748 548.021 154.978 548.799L153.771 549.33C151.99 550.112 150.291 550.571 148.673 550.706C147.056 550.841 145.562 550.69 144.193 550.255C142.814 549.824 141.597 549.124 140.543 548.153C139.485 547.172 138.638 545.957 138.001 544.509C137.355 543.039 137.031 541.588 137.029 540.155C137.027 538.722 137.333 537.352 137.949 536.045C138.55 534.731 139.449 533.53 140.647 532.44C141.84 531.34 143.328 530.398 145.109 529.616ZM148.281 533.559L147.042 534.104C145.765 534.665 144.696 535.275 143.834 535.936C142.962 536.601 142.294 537.31 141.832 538.064C141.369 538.817 141.12 539.605 141.085 540.427C141.038 541.254 141.201 542.091 141.574 542.939C141.951 543.797 142.457 544.483 143.093 544.998C143.713 545.506 144.457 545.845 145.325 546.014C146.193 546.183 147.169 546.176 148.254 545.994C149.323 545.806 150.496 545.431 151.773 544.87L153.012 544.325C154.278 543.769 155.347 543.159 156.22 542.494C157.088 541.818 157.758 541.101 158.232 540.342C158.689 539.578 158.944 538.788 158.995 537.972C159.046 537.156 158.883 536.319 158.506 535.46C158.128 534.602 157.622 533.916 156.987 533.401C156.351 532.887 155.602 532.551 154.738 532.392C153.86 532.228 152.88 532.242 151.8 532.435C150.72 532.628 149.547 533.003 148.281 533.559ZM130.396 526.327L153.827 516.031L155.772 520.456L132.341 530.753L130.396 526.327ZM136.367 512.432L139.86 510.898L144.52 521.503L141.028 523.038L136.367 512.432ZM125.7 515.641L129.193 514.107L134.397 525.951L130.905 527.486L125.7 515.641ZM122.433 508.206L145.865 497.91L147.81 502.336L124.378 512.632L122.433 508.206ZM128.405 494.312L131.897 492.777L136.557 503.382L133.065 504.917L128.405 494.312ZM117.738 497.52L121.23 495.986L126.435 507.83L122.943 509.365L117.738 497.52Z" fill="#4DA9C6"/>
<path d="M306.309 733.184C343.394 733.595 380.264 726.751 414.816 713.043C449.368 699.336 480.924 679.033 507.683 653.294L312.084 452.876L306.309 733.184Z" fill="#85D2EB"/>
<path d="M430.732 666.128L434.54 665.885L437.011 678.646L423.564 682.821L422.423 679.144L432.193 676.111L431.059 670.205C430.778 670.525 430.34 670.894 429.746 671.312C429.144 671.744 428.423 672.091 427.584 672.351C426.42 672.713 425.32 672.846 424.284 672.75C423.252 672.666 422.307 672.37 421.45 671.863C420.582 671.359 419.828 670.649 419.187 669.731C418.539 668.828 418.016 667.739 417.62 666.463C417.273 665.344 417.114 664.24 417.144 663.15C417.166 662.076 417.395 661.054 417.83 660.084C418.269 659.126 418.93 658.271 419.813 657.518C420.699 656.776 421.831 656.192 423.207 655.765C424.248 655.441 425.297 655.282 426.353 655.285C427.402 655.303 428.398 655.49 429.344 655.847C430.292 656.215 431.132 656.765 431.861 657.495C432.58 658.229 433.137 659.154 433.533 660.271L429.152 661.631C428.84 660.906 428.441 660.33 427.953 659.905C427.465 659.48 426.915 659.209 426.302 659.092C425.678 658.979 425.013 659.032 424.308 659.251C423.67 659.449 423.158 659.737 422.772 660.115C422.379 660.507 422.099 660.968 421.932 661.498C421.765 662.029 421.701 662.613 421.74 663.251C421.779 663.89 421.907 664.561 422.126 665.266C422.338 665.949 422.615 666.544 422.957 667.052C423.302 667.57 423.712 667.983 424.188 668.289C424.663 668.595 425.199 668.779 425.794 668.839C426.378 668.903 427.018 668.828 427.711 668.612C428.64 668.324 429.313 667.962 429.73 667.525C430.136 667.093 430.47 666.627 430.732 666.128ZM400.259 678.958L398.982 674.845C398.399 672.965 398.09 671.299 398.057 669.85C398.024 668.4 398.234 667.138 398.686 666.065C399.142 665.003 399.805 664.116 400.676 663.404C401.55 662.703 402.598 662.163 403.818 661.785C404.791 661.482 405.736 661.324 406.652 661.31C407.571 661.306 408.448 661.464 409.283 661.781C410.11 662.113 410.893 662.619 411.631 663.298C412.358 663.98 413.03 664.857 413.645 665.93C414.249 667.006 414.784 668.294 415.25 669.794L416.527 673.907C417.11 675.787 417.417 677.447 417.446 678.886C417.465 680.328 417.246 681.58 416.79 682.642C416.335 683.703 415.668 684.579 414.79 685.269C413.916 685.97 412.868 686.51 411.648 686.889C410.664 687.194 409.719 687.353 408.814 687.364C407.898 687.378 407.029 687.225 406.205 686.904C405.374 686.597 404.594 686.103 403.867 685.421C403.144 684.75 402.48 683.876 401.875 682.8C401.264 681.738 400.725 680.457 400.259 678.958ZM403.227 672.864L404.884 678.203C405.176 679.143 405.486 679.943 405.813 680.602C406.133 681.276 406.47 681.827 406.824 682.257C407.178 682.687 407.553 683.006 407.949 683.215C408.349 683.434 408.767 683.556 409.204 683.58C409.641 683.604 410.094 683.543 410.564 683.397C411.146 683.216 411.63 682.937 412.016 682.559C412.406 682.193 412.68 681.715 412.841 681.125C413.001 680.536 413.039 679.806 412.953 678.937C412.859 678.083 412.632 677.073 412.271 675.91L410.613 670.571C410.321 669.631 410.016 668.824 409.696 668.15C409.365 667.48 409.021 666.924 408.663 666.483C408.294 666.045 407.914 665.71 407.522 665.475C407.122 665.256 406.702 665.128 406.262 665.093C405.825 665.07 405.372 665.131 404.902 665.277C404.308 665.461 403.825 665.74 403.45 666.114C403.064 666.491 402.793 666.98 402.636 667.581C402.482 668.194 402.454 668.932 402.551 669.798C402.64 670.678 402.865 671.7 403.227 672.864ZM398.201 684.125L398.602 685.417C398.891 686.346 398.951 687.254 398.785 688.14C398.618 689.026 398.22 689.818 397.59 690.517C396.949 691.219 396.069 691.744 394.95 692.091C393.808 692.446 392.78 692.513 391.866 692.294C390.94 692.079 390.163 691.651 389.535 691.012C388.896 690.376 388.432 689.593 388.143 688.665L387.742 687.372C387.461 686.465 387.403 685.569 387.57 684.683C387.725 683.8 388.118 683.01 388.748 682.311C389.377 681.612 390.257 681.088 391.388 680.737C392.518 680.386 393.546 680.318 394.472 680.534C395.398 680.749 396.181 681.175 396.82 681.811C397.459 682.447 397.919 683.218 398.201 684.125ZM395.597 686.35L395.196 685.058C395.064 684.632 394.86 684.254 394.585 683.922C394.303 683.605 393.957 683.381 393.549 683.25C393.14 683.119 392.684 683.132 392.18 683.288C391.676 683.445 391.304 683.689 391.064 684.021C390.812 684.357 390.666 684.734 390.624 685.152C390.574 685.585 390.615 686.014 390.747 686.439L391.148 687.732C391.284 688.168 391.495 688.55 391.781 688.879C392.056 689.211 392.397 689.442 392.806 689.573C393.204 689.707 393.654 689.696 394.158 689.54C394.65 689.387 395.028 689.141 395.291 688.801C395.542 688.466 395.693 688.081 395.743 687.649C395.781 687.22 395.733 686.787 395.597 686.35ZM382.197 674.019L382.599 675.312C382.884 676.229 382.943 677.131 382.776 678.017C382.598 678.907 382.189 679.703 381.548 680.405C380.907 681.107 380.033 681.63 378.925 681.974C377.772 682.332 376.738 682.401 375.824 682.182C374.909 681.963 374.138 681.534 373.51 680.894C372.87 680.259 372.408 679.482 372.123 678.564L371.722 677.271C371.437 676.354 371.378 675.452 371.545 674.566C371.7 673.683 372.093 672.892 372.722 672.194C373.341 671.499 374.215 670.975 375.346 670.625C376.476 670.274 377.51 670.204 378.447 670.416C379.373 670.632 380.161 671.056 380.811 671.688C381.45 672.324 381.913 673.101 382.197 674.019ZM379.577 676.25L379.176 674.957C379.04 674.521 378.824 674.14 378.527 673.815C378.233 673.501 377.882 673.279 377.473 673.148C377.053 673.021 376.614 673.029 376.155 673.171C375.595 673.345 375.19 673.6 374.938 673.935C374.686 674.271 374.551 674.645 374.531 675.056C374.515 675.478 374.575 675.907 374.71 676.344L375.112 677.636C375.247 678.073 375.456 678.45 375.739 678.767C376.025 679.095 376.372 679.325 376.781 679.456C377.178 679.59 377.629 679.579 378.132 679.422C378.625 679.269 379.003 679.023 379.265 678.684C379.517 678.348 379.668 677.964 379.717 677.531C379.759 677.113 379.713 676.686 379.577 676.25ZM380.897 692.24L386.902 669.429L389.481 669.972L383.477 692.782L380.897 692.24ZM399.25 621.108L398.859 619.849C398.286 618.003 398.016 616.264 398.05 614.634C398.087 613.015 398.399 611.55 398.986 610.239C399.573 608.928 400.408 607.804 401.491 606.866C402.574 605.928 403.883 605.222 405.416 604.746C406.927 604.276 408.4 604.12 409.835 604.276C411.258 604.435 412.589 604.887 413.826 605.631C415.064 606.376 416.162 607.403 417.121 608.713C418.083 610.034 418.851 611.618 419.424 613.465L419.815 614.724C420.392 616.581 420.656 618.322 420.608 619.944C420.559 621.567 420.242 623.033 419.655 624.344C419.071 625.667 418.238 626.797 417.155 627.734C416.06 628.675 414.758 629.38 413.247 629.849C411.714 630.325 410.235 630.484 408.811 630.325C407.388 630.165 406.061 629.706 404.831 628.947C403.594 628.202 402.501 627.173 401.554 625.86C400.595 624.55 399.827 622.966 399.25 621.108ZM403.526 618.4L403.928 619.693C404.341 621.025 404.827 622.156 405.386 623.087C405.949 624.029 406.578 624.772 407.275 625.317C407.972 625.861 408.726 626.197 409.539 626.325C410.355 626.465 411.206 626.397 412.09 626.123C412.985 625.845 413.724 625.419 414.307 624.845C414.882 624.286 415.302 623.585 415.568 622.742C415.834 621.899 415.937 620.928 415.879 619.829C415.812 618.746 415.572 617.538 415.159 616.206L414.757 614.914C414.347 613.593 413.861 612.462 413.299 611.52C412.725 610.581 412.088 609.834 411.388 609.278C410.68 608.737 409.924 608.395 409.118 608.253C408.313 608.11 407.463 608.178 406.568 608.456C405.673 608.734 404.933 609.159 404.351 609.733C403.768 610.307 403.349 611.013 403.095 611.853C402.832 612.708 402.736 613.682 402.806 614.777C402.876 615.872 403.116 617.08 403.526 618.4ZM394.324 635.357L386.735 610.914L391.351 609.48L398.94 633.923L394.324 635.357ZM381.191 627.857L380.06 624.214L391.123 620.779L392.254 624.422L381.191 627.857ZM383.177 638.817L382.046 635.174L394.401 631.338L395.532 634.981L383.177 638.817ZM375.421 641.225L367.832 616.783L372.449 615.349L380.038 639.792L375.421 641.225ZM362.288 633.726L361.157 630.083L372.22 626.648L373.351 630.291L362.288 633.726ZM364.274 644.686L363.143 641.043L375.499 637.207L376.63 640.85L364.274 644.686Z" fill="#4DA9C6"/>
<path d="M550.322 527.783L527.736 515.597L529.948 511.498L547.754 521.105L548.889 514.707L552.199 516.493L550.572 527.319L550.322 527.783ZM528.796 545.21L525.005 543.165C523.273 542.231 521.887 541.257 520.849 540.244C519.811 539.231 519.078 538.183 518.651 537.1C518.233 536.023 518.087 534.925 518.21 533.807C518.345 532.694 518.715 531.576 519.322 530.452C519.806 529.554 520.37 528.78 521.014 528.129C521.669 527.484 522.405 526.982 523.224 526.625C524.047 526.284 524.96 526.097 525.963 526.065C526.96 526.044 528.053 526.201 529.243 526.537C530.428 526.883 531.711 527.429 533.093 528.175L536.884 530.22C538.616 531.155 539.996 532.126 541.024 533.133C542.046 534.151 542.766 535.198 543.184 536.276C543.601 537.353 543.737 538.445 543.593 539.552C543.458 540.665 543.088 541.783 542.482 542.907C541.992 543.815 541.428 544.589 540.789 545.23C540.145 545.881 539.416 546.38 538.603 546.727C537.795 547.09 536.892 547.282 535.895 547.303C534.909 547.33 533.823 547.171 532.638 546.824C531.459 546.494 530.178 545.956 528.796 545.21ZM526.652 538.781L531.571 541.435C532.438 541.903 533.219 542.257 533.914 542.499C534.613 542.757 535.24 542.915 535.794 542.975C536.348 543.034 536.84 542.999 537.268 542.871C537.707 542.748 538.091 542.543 538.42 542.254C538.749 541.965 539.03 541.605 539.264 541.171C539.553 540.635 539.704 540.097 539.715 539.557C539.737 539.023 539.599 538.489 539.301 537.956C539.003 537.422 538.519 536.875 537.85 536.314C537.185 535.769 536.317 535.207 535.244 534.628L530.325 531.974C529.458 531.507 528.675 531.144 527.975 530.886C527.27 530.639 526.635 530.483 526.071 530.418C525.501 530.364 524.994 530.39 524.551 530.497C524.111 530.619 523.722 530.822 523.383 531.105C523.054 531.394 522.773 531.755 522.539 532.188C522.245 532.734 522.094 533.272 522.088 533.802C522.077 534.342 522.225 534.881 522.533 535.42C522.852 535.965 523.349 536.513 524.024 537.063C524.703 537.63 525.579 538.202 526.652 538.781ZM530.94 550.342L532.131 550.985C532.987 551.447 533.666 552.053 534.167 552.802C534.668 553.552 534.938 554.397 534.977 555.336C535.01 556.286 534.748 557.277 534.192 558.309C533.624 559.36 532.937 560.128 532.13 560.612C531.318 561.105 530.464 561.344 529.568 561.326C528.666 561.319 527.787 561.085 526.931 560.623L525.74 559.98C524.905 559.529 524.237 558.929 523.736 558.18C523.229 557.44 522.956 556.601 522.917 555.661C522.879 554.721 523.14 553.73 523.702 552.689C524.264 551.647 524.951 550.879 525.764 550.386C526.576 549.892 527.433 549.648 528.335 549.656C529.236 549.663 530.105 549.892 530.94 550.342ZM530.637 553.754L529.446 553.111C529.054 552.9 528.644 552.772 528.215 552.727C527.792 552.698 527.388 552.78 527.004 552.972C526.621 553.165 526.304 553.493 526.054 553.957C525.803 554.422 525.708 554.856 525.769 555.262C525.824 555.678 525.983 556.05 526.246 556.378C526.513 556.722 526.842 557 527.234 557.211L528.425 557.854C528.828 558.071 529.246 558.196 529.68 558.231C530.109 558.276 530.515 558.202 530.898 558.009C531.276 557.827 531.59 557.504 531.841 557.04C532.085 556.586 532.183 556.146 532.133 555.72C532.078 555.304 531.917 554.924 531.65 554.58C531.377 554.246 531.04 553.971 530.637 553.754ZM512.436 554.32L513.627 554.963C514.473 555.419 515.146 556.022 515.647 556.771C516.142 557.531 516.407 558.386 516.44 559.337C516.474 560.287 516.215 561.272 515.664 562.293C515.091 563.356 514.401 564.128 513.594 564.612C512.787 565.095 511.936 565.328 511.04 565.311C510.138 565.304 509.264 565.072 508.419 564.616L507.227 563.973C506.382 563.517 505.708 562.914 505.207 562.164C504.701 561.425 504.428 560.585 504.389 559.646C504.345 558.716 504.604 557.731 505.166 556.689C505.728 555.647 506.418 554.874 507.236 554.37C508.048 553.876 508.908 553.628 509.815 553.625C510.716 553.632 511.59 553.864 512.436 554.32ZM512.125 557.747L510.933 557.104C510.531 556.887 510.11 556.767 509.671 556.743C509.241 556.724 508.835 556.811 508.451 557.004C508.062 557.206 507.754 557.519 507.525 557.942C507.247 558.458 507.136 558.924 507.191 559.34C507.246 559.755 507.41 560.117 507.684 560.425C507.968 560.737 508.311 561.002 508.713 561.219L509.904 561.862C510.307 562.079 510.72 562.202 511.143 562.231C511.578 562.266 511.986 562.187 512.37 561.994C512.748 561.812 513.062 561.489 513.312 561.025C513.557 560.571 513.655 560.131 513.605 559.704C513.55 559.289 513.389 558.909 513.122 558.565C512.859 558.237 512.527 557.964 512.125 557.747ZM524.256 568.247L512.585 547.749L514.808 546.332L526.479 566.83L524.256 568.247ZM487.598 504.587L486.437 503.961C484.736 503.043 483.326 501.989 482.21 500.801C481.104 499.618 480.302 498.353 479.803 497.006C479.305 495.659 479.115 494.271 479.233 492.843C479.351 491.416 479.791 489.995 480.553 488.582C481.305 487.19 482.247 486.048 483.381 485.155C484.51 484.272 485.777 483.664 487.182 483.331C488.587 482.997 490.09 482.962 491.692 483.227C493.304 483.498 494.96 484.092 496.662 485.01L497.822 485.636C499.534 486.56 500.941 487.618 502.041 488.811C503.142 490.004 503.941 491.274 504.439 492.622C504.948 493.975 505.143 495.365 505.025 496.793C504.902 498.231 504.465 499.646 503.713 501.038C502.951 502.451 502.006 503.599 500.877 504.481C499.748 505.364 498.479 505.964 497.069 506.282C495.664 506.616 494.164 506.645 492.568 506.37C490.966 506.105 489.31 505.511 487.598 504.587ZM488.758 499.66L489.949 500.303C491.176 500.965 492.315 501.433 493.366 501.707C494.427 501.986 495.397 502.077 496.275 501.978C497.154 501.88 497.928 501.592 498.599 501.115C499.279 500.643 499.839 500 500.279 499.185C500.724 498.36 500.954 497.539 500.969 496.721C500.989 495.92 500.799 495.125 500.399 494.336C499.998 493.548 499.393 492.782 498.582 492.038C497.777 491.31 496.76 490.616 495.533 489.953L494.342 489.311C493.125 488.654 491.986 488.186 490.925 487.907C489.858 487.637 488.881 487.549 487.992 487.642C487.107 487.751 486.328 488.036 485.653 488.497C484.978 488.959 484.417 489.602 483.972 490.427C483.527 491.252 483.297 492.073 483.282 492.891C483.267 493.708 483.463 494.506 483.868 495.284C484.279 496.078 484.892 496.842 485.708 497.575C486.524 498.309 487.541 499.004 488.758 499.66ZM494.047 518.213L471.523 506.06L473.818 501.806L496.343 513.959L494.047 518.213ZM479.417 522.044L476.06 520.233L481.561 510.038L484.918 511.849L479.417 522.044ZM488.505 528.485L485.148 526.674L491.291 515.288L494.648 517.099L488.505 528.485ZM484.649 535.632L462.124 523.48L464.42 519.225L486.944 531.378L484.649 535.632ZM470.019 539.463L466.662 537.652L472.162 527.457L475.519 529.269L470.019 539.463ZM479.107 545.905L475.75 544.093L481.893 532.707L485.25 534.519L479.107 545.905Z" fill="#4DA9C6"/>
<path d="M247.686 679.917L250.911 681.956L245.418 693.736L232.082 689.22L233.317 685.574L243.007 688.855L245.557 683.409C245.141 683.503 244.57 683.545 243.844 683.534C243.103 683.531 242.316 683.388 241.484 683.106C240.329 682.715 239.361 682.177 238.579 681.491C237.793 680.816 237.202 680.022 236.806 679.109C236.399 678.192 236.205 677.173 236.226 676.054C236.231 674.943 236.448 673.754 236.877 672.489C237.252 671.379 237.772 670.392 238.436 669.528C239.085 668.671 239.87 667.978 240.792 667.449C241.71 666.931 242.747 666.626 243.904 666.536C245.057 666.456 246.316 666.647 247.681 667.11C248.713 667.459 249.656 667.946 250.509 668.569C251.347 669.199 252.044 669.936 252.599 670.78C253.151 671.635 253.508 672.572 253.67 673.592C253.821 674.608 253.728 675.684 253.393 676.821L249.048 675.349C249.222 674.579 249.236 673.879 249.091 673.248C248.946 672.617 248.659 672.075 248.232 671.621C247.793 671.163 247.224 670.815 246.525 670.578C245.892 670.364 245.309 670.296 244.775 670.375C244.226 670.462 243.728 670.671 243.282 671.002C242.835 671.333 242.441 671.769 242.097 672.308C241.754 672.848 241.463 673.467 241.227 674.166C240.997 674.843 240.872 675.487 240.85 676.099C240.825 676.721 240.915 677.296 241.12 677.823C241.325 678.35 241.651 678.813 242.097 679.212C242.533 679.607 243.094 679.921 243.783 680.154C244.704 680.466 245.461 680.568 246.055 680.46C246.637 680.348 247.181 680.167 247.686 679.917ZM215.487 672.408L216.868 668.329C217.5 666.464 218.228 664.935 219.053 663.742C219.877 662.549 220.788 661.651 221.784 661.048C222.776 660.457 223.834 660.128 224.957 660.063C226.077 660.009 227.241 660.187 228.451 660.597C229.417 660.924 230.274 661.351 231.024 661.877C231.77 662.414 232.388 663.056 232.877 663.803C233.351 664.558 233.688 665.427 233.887 666.41C234.075 667.389 234.103 668.493 233.971 669.723C233.828 670.949 233.505 672.306 233.001 673.793L231.62 677.872C230.988 679.737 230.262 681.26 229.441 682.442C228.609 683.62 227.697 684.505 226.704 685.097C225.712 685.689 224.658 686.006 223.543 686.049C222.423 686.103 221.258 685.925 220.049 685.515C219.072 685.184 218.214 684.758 217.476 684.236C216.726 683.709 216.112 683.075 215.634 682.331C215.141 681.595 214.8 680.737 214.612 679.758C214.42 678.79 214.396 677.693 214.539 676.467C214.667 675.248 214.983 673.895 215.487 672.408ZM221.467 669.218L219.674 674.513C219.358 675.445 219.139 676.274 219.017 677C218.88 677.733 218.829 678.378 218.863 678.934C218.897 679.49 219.014 679.968 219.212 680.369C219.406 680.782 219.673 681.126 220.013 681.402C220.352 681.678 220.755 681.894 221.222 682.052C221.799 682.248 222.354 682.306 222.888 682.227C223.419 682.159 223.922 681.934 224.398 681.551C224.874 681.167 225.333 680.599 225.774 679.845C226.2 679.099 226.608 678.148 226.999 676.994L228.792 671.699C229.108 670.767 229.334 669.934 229.471 669.201C229.597 668.464 229.645 667.812 229.614 667.245C229.572 666.674 229.462 666.179 229.282 665.759C229.088 665.347 228.823 664.998 228.487 664.711C228.147 664.435 227.744 664.218 227.278 664.06C226.69 663.861 226.134 663.802 225.611 663.885C225.077 663.964 224.57 664.201 224.09 664.595C223.607 665 223.15 665.582 222.72 666.339C222.275 667.104 221.858 668.064 221.467 669.218ZM210.786 675.382L210.352 676.664C210.04 677.585 209.557 678.355 208.901 678.975C208.246 679.594 207.459 680.002 206.539 680.197C205.608 680.389 204.587 680.297 203.477 679.921C202.345 679.538 201.473 678.989 200.861 678.274C200.238 677.556 199.861 676.754 199.728 675.868C199.584 674.978 199.668 674.072 199.98 673.151L200.414 671.869C200.719 670.97 201.198 670.21 201.854 669.591C202.498 668.968 203.28 668.558 204.2 668.363C205.12 668.167 206.14 668.259 207.261 668.639C208.382 669.018 209.254 669.567 209.877 670.285C210.5 671.004 210.883 671.808 211.027 672.698C211.171 673.588 211.091 674.483 210.786 675.382ZM207.372 675.654L207.806 674.372C207.949 673.95 208.007 673.525 207.979 673.095C207.937 672.672 207.789 672.288 207.534 671.942C207.28 671.596 206.904 671.338 206.404 671.169C205.905 671 205.46 670.979 205.07 671.107C204.67 671.231 204.329 671.45 204.05 671.764C203.756 672.085 203.537 672.456 203.394 672.878L202.96 674.16C202.813 674.593 202.759 675.026 202.798 675.46C202.826 675.89 202.967 676.278 203.221 676.624C203.464 676.966 203.835 677.221 204.334 677.391C204.823 677.556 205.273 677.579 205.685 677.458C206.085 677.334 206.433 677.112 206.727 676.791C207.011 676.466 207.225 676.087 207.372 675.654ZM203.767 657.804L203.333 659.086C203.024 659.997 202.543 660.761 201.888 661.381C201.221 661.996 200.423 662.4 199.491 662.592C198.56 662.784 197.545 662.694 196.447 662.322C195.303 661.935 194.426 661.384 193.814 660.669C193.202 659.955 192.83 659.154 192.697 658.268C192.553 657.378 192.635 656.478 192.944 655.568L193.378 654.286C193.686 653.376 194.168 652.611 194.823 651.991C195.467 651.368 196.249 650.959 197.169 650.763C198.078 650.564 199.093 650.654 200.214 651.033C201.335 651.413 202.213 651.964 202.847 652.686C203.469 653.404 203.858 654.21 204.013 655.104C204.157 655.994 204.075 656.894 203.767 657.804ZM200.336 658.071L200.77 656.789C200.917 656.357 200.965 655.921 200.915 655.484C200.862 655.057 200.708 654.671 200.454 654.325C200.189 653.976 199.829 653.724 199.374 653.57C198.819 653.382 198.341 653.35 197.94 653.474C197.539 653.598 197.21 653.821 196.953 654.142C196.692 654.474 196.488 654.857 196.341 655.289L195.907 656.571C195.761 657.004 195.709 657.432 195.751 657.855C195.79 658.289 195.936 658.678 196.19 659.024C196.433 659.366 196.804 659.622 197.304 659.791C197.792 659.957 198.242 659.979 198.654 659.859C199.055 659.735 199.402 659.512 199.697 659.191C199.976 658.878 200.189 658.504 200.336 658.071ZM192.015 671.789L210.27 656.852L212.039 658.806L193.785 673.743L192.015 671.789ZM248.639 624.99L249.062 623.741C249.683 621.91 250.485 620.344 251.47 619.045C252.45 617.756 253.563 616.753 254.808 616.037C256.053 615.32 257.389 614.9 258.817 614.778C260.244 614.655 261.718 614.851 263.238 615.366C264.737 615.873 266.021 616.611 267.091 617.58C268.15 618.545 268.962 619.692 269.526 621.022C270.09 622.351 270.376 623.827 270.383 625.45C270.386 627.085 270.078 628.818 269.457 630.649L269.035 631.898C268.411 633.74 267.603 635.304 266.611 636.589C265.619 637.874 264.5 638.874 263.255 639.591C262.007 640.319 260.669 640.744 259.241 640.867C257.803 640.986 256.335 640.792 254.836 640.284C253.315 639.769 252.026 639.029 250.967 638.064C249.908 637.099 249.104 635.949 248.554 634.612C247.99 633.283 247.71 631.808 247.714 630.189C247.707 628.565 248.015 626.833 248.639 624.99ZM253.691 625.309L253.257 626.591C252.809 627.912 252.538 629.113 252.444 630.195C252.346 631.287 252.42 632.259 252.664 633.109C252.908 633.958 253.321 634.674 253.904 635.255C254.483 635.847 255.211 636.291 256.088 636.588C256.976 636.889 257.824 636.978 258.633 636.856C259.426 636.741 260.178 636.421 260.888 635.894C261.599 635.368 262.253 634.643 262.85 633.719C263.433 632.803 263.947 631.684 264.395 630.363L264.829 629.081C265.273 627.772 265.543 626.57 265.641 625.478C265.728 624.381 265.651 623.402 265.411 622.542C265.155 621.688 264.744 620.967 264.176 620.379C263.608 619.791 262.88 619.346 261.992 619.045C261.104 618.745 260.256 618.655 259.448 618.777C258.639 618.899 257.885 619.226 257.186 619.756C256.472 620.294 255.822 621.026 255.236 621.953C254.649 622.881 254.134 623.999 253.691 625.309ZM236.285 633.63L244.495 609.389L249.074 610.94L240.864 635.181L236.285 633.63ZM230.059 619.848L231.283 616.235L242.254 619.951L241.031 623.564L230.059 619.848ZM225.23 629.886L226.454 626.273L238.708 630.423L237.484 634.036L225.23 629.886ZM217.538 627.281L225.748 603.04L230.327 604.59L222.117 628.831L217.538 627.281ZM211.312 613.499L212.536 609.886L223.507 613.602L222.284 617.215L211.312 613.499ZM206.483 623.537L207.707 619.924L219.961 624.074L218.737 627.687L206.483 623.537Z" fill="#4DA9C6"/>
<path d="M373.132 221.228L375.516 222.313C376.359 222.696 377.118 222.867 377.793 222.826C378.483 222.78 379.078 222.561 379.578 222.171C380.093 221.774 380.506 221.234 380.816 220.552C381.122 219.88 381.263 219.242 381.241 218.64C381.224 218.027 381.025 217.473 380.645 216.979C380.28 216.478 379.714 216.053 378.946 215.704C378.327 215.423 377.701 215.286 377.066 215.293C376.443 215.306 375.872 215.471 375.354 215.789C374.852 216.101 374.457 216.572 374.171 217.202L369.931 215.273C370.503 214.015 371.336 213.061 372.429 212.412C373.538 211.758 374.786 211.418 376.175 211.393C377.564 211.368 378.963 211.676 380.371 212.316C381.907 213.015 383.135 213.882 384.054 214.918C384.989 215.948 385.553 217.099 385.747 218.372C385.951 219.649 385.723 221.013 385.064 222.464C384.748 223.157 384.268 223.776 383.622 224.319C382.991 224.856 382.235 225.259 381.353 225.527C380.487 225.79 379.523 225.886 378.461 225.815C377.415 225.738 376.31 225.435 375.147 224.906L372.091 223.517L373.132 221.228ZM371.647 224.493L372.673 222.236L375.73 223.626C377.042 224.223 378.107 224.894 378.927 225.64C379.762 226.38 380.368 227.171 380.745 228.012C381.127 228.842 381.302 229.688 381.271 230.549C381.251 231.415 381.051 232.264 380.673 233.096C380.178 234.184 379.534 235.063 378.74 235.732C377.952 236.39 377.056 236.845 376.053 237.097C375.061 237.354 374.004 237.414 372.882 237.277C371.765 237.13 370.635 236.796 369.494 236.277C368.502 235.826 367.597 235.254 366.779 234.56C365.978 233.861 365.327 233.069 364.828 232.186C364.333 231.291 364.056 230.329 363.997 229.298C363.943 228.256 364.168 227.181 364.673 226.071L368.913 228C368.622 228.64 368.517 229.281 368.599 229.923C368.691 230.57 368.949 231.163 369.372 231.704C369.812 232.238 370.383 232.665 371.087 232.985C371.866 233.34 372.596 233.504 373.277 233.479C373.973 233.448 374.589 233.239 375.126 232.852C375.667 232.455 376.105 231.888 376.44 231.152C376.838 230.277 376.995 229.493 376.911 228.798C376.828 228.104 376.535 227.488 376.033 226.95C375.541 226.418 374.874 225.96 374.032 225.577L371.647 224.493ZM402.712 234.525L400.93 238.446C400.115 240.238 399.237 241.686 398.297 242.791C397.357 243.895 396.362 244.698 395.31 245.198C394.264 245.688 393.178 245.909 392.054 245.861C390.935 245.802 389.794 245.509 388.631 244.98C387.703 244.558 386.893 244.048 386.199 243.449C385.511 242.84 384.96 242.139 384.548 241.347C384.152 240.549 383.904 239.65 383.804 238.652C383.715 237.659 383.798 236.558 384.052 235.347C384.317 234.142 384.774 232.824 385.424 231.395L387.207 227.475C388.022 225.682 388.897 224.239 389.832 223.146C390.778 222.057 391.774 221.267 392.821 220.778C393.867 220.288 394.948 220.078 396.062 220.147C397.181 220.205 398.322 220.499 399.485 221.028C400.424 221.454 401.235 221.965 401.917 222.558C402.611 223.157 403.158 223.85 403.559 224.638C403.976 225.419 404.229 226.307 404.318 227.3C404.412 228.282 404.327 229.376 404.062 230.582C403.812 231.781 403.362 233.096 402.712 234.525ZM396.443 237.101L398.757 232.012C399.165 231.116 399.466 230.313 399.66 229.603C399.869 228.888 399.985 228.252 400.006 227.695C400.028 227.138 399.96 226.65 399.803 226.231C399.651 225.802 399.419 225.433 399.109 225.124C398.799 224.816 398.42 224.56 397.972 224.356C397.417 224.104 396.87 223.99 396.331 224.015C395.796 224.03 395.273 224.204 394.761 224.537C394.249 224.871 393.736 225.39 393.221 226.096C392.723 226.797 392.221 227.701 391.717 228.811L389.403 233.899C388.995 234.795 388.687 235.601 388.477 236.317C388.278 237.037 388.166 237.681 388.139 238.249C388.124 238.821 388.184 239.325 388.321 239.76C388.473 240.19 388.702 240.564 389.007 240.884C389.318 241.192 389.697 241.448 390.145 241.652C390.71 241.909 391.257 242.022 391.786 241.993C392.325 241.967 392.853 241.783 393.37 241.439C393.892 241.084 394.405 240.551 394.908 239.84C395.427 239.123 395.939 238.21 396.443 237.101ZM407.687 232.037L408.247 230.805C408.65 229.92 409.208 229.202 409.922 228.651C410.636 228.1 411.46 227.773 412.395 227.671C413.341 227.573 414.347 227.767 415.414 228.252C416.502 228.746 417.314 229.38 417.852 230.152C418.399 230.929 418.695 231.765 418.739 232.66C418.793 233.56 418.618 234.453 418.216 235.338L417.656 236.57C417.263 237.435 416.709 238.142 415.995 238.693C415.292 239.248 414.473 239.577 413.538 239.68C412.603 239.783 411.597 239.589 410.519 239.099C409.442 238.609 408.629 237.976 408.082 237.199C407.534 236.422 407.233 235.583 407.179 234.683C407.124 233.783 407.294 232.901 407.687 232.037ZM411.111 232.108L410.551 233.34C410.367 233.745 410.267 234.163 410.251 234.594C410.251 235.018 410.36 235.416 410.578 235.785C410.796 236.155 411.145 236.449 411.625 236.667C412.106 236.885 412.546 236.95 412.946 236.862C413.358 236.779 413.718 236.595 414.027 236.311C414.352 236.021 414.607 235.673 414.791 235.268L415.352 234.036C415.541 233.62 415.638 233.194 415.643 232.759C415.658 232.328 415.557 231.928 415.339 231.558C415.131 231.194 414.788 230.902 414.308 230.684C413.838 230.47 413.393 230.403 412.971 230.481C412.559 230.565 412.191 230.751 411.866 231.041C411.552 231.336 411.3 231.692 411.111 232.108ZM412.912 250.229L413.472 248.996C413.87 248.122 414.426 247.409 415.14 246.858C415.865 246.312 416.7 245.99 417.645 245.893C418.591 245.795 419.592 245.986 420.648 246.466C421.747 246.966 422.565 247.602 423.102 248.374C423.639 249.146 423.929 249.98 423.973 250.875C424.027 251.775 423.855 252.662 423.457 253.537L422.897 254.769C422.499 255.644 421.943 256.357 421.229 256.907C420.526 257.463 419.707 257.792 418.772 257.895C417.848 258.002 416.847 257.811 415.77 257.321C414.692 256.831 413.874 256.195 413.316 255.413C412.768 254.637 412.462 253.796 412.397 252.891C412.343 251.991 412.514 251.103 412.912 250.229ZM416.353 250.306L415.792 251.538C415.603 251.954 415.512 252.383 415.517 252.823C415.528 253.253 415.642 253.652 415.86 254.022C416.089 254.396 416.422 254.683 416.86 254.882C417.393 255.124 417.865 255.204 418.277 255.12C418.688 255.037 419.037 254.849 419.326 254.555C419.619 254.25 419.86 253.89 420.049 253.474L420.609 252.242C420.798 251.826 420.893 251.405 420.893 250.981C420.898 250.545 420.791 250.143 420.573 249.773C420.366 249.408 420.022 249.117 419.542 248.899C419.072 248.685 418.627 248.618 418.205 248.696C417.794 248.779 417.426 248.966 417.101 249.256C416.791 249.54 416.542 249.89 416.353 250.306ZM426.004 237.49L406.347 250.526L404.782 248.404L424.439 235.368L426.004 237.49ZM364.981 278.388L364.436 279.588C363.635 281.348 362.68 282.826 361.57 284.02C360.466 285.204 359.258 286.091 357.948 286.679C356.637 287.268 355.266 287.552 353.833 287.531C352.401 287.51 350.954 287.168 349.492 286.503C348.052 285.848 346.848 284.985 345.881 283.914C344.924 282.848 344.231 281.626 343.802 280.247C343.374 278.867 343.237 277.37 343.393 275.754C343.553 274.128 344.034 272.435 344.834 270.674L345.38 269.474C346.185 267.703 347.145 266.228 348.261 265.049C349.376 263.87 350.589 262.986 351.9 262.398C353.215 261.799 354.589 261.509 356.021 261.53C357.464 261.556 358.906 261.896 360.346 262.551C361.808 263.215 363.017 264.08 363.974 265.146C364.931 266.213 365.616 267.438 366.029 268.823C366.457 270.202 366.589 271.697 366.422 273.308C366.267 274.924 365.787 276.617 364.981 278.388ZM359.987 277.565L360.548 276.333C361.125 275.064 361.514 273.896 361.716 272.829C361.923 271.751 361.947 270.778 361.79 269.908C361.632 269.038 361.292 268.284 360.77 267.648C360.253 267.001 359.574 266.486 358.731 266.103C357.877 265.715 357.042 265.541 356.226 265.582C355.425 265.616 354.644 265.86 353.885 266.313C353.125 266.766 352.402 267.422 351.715 268.281C351.044 269.134 350.42 270.196 349.843 271.465L349.282 272.697C348.71 273.956 348.32 275.124 348.114 276.202C347.918 277.284 347.896 278.265 348.049 279.146C348.218 280.021 348.555 280.779 349.061 281.422C349.567 282.064 350.247 282.579 351.101 282.967C351.954 283.355 352.789 283.529 353.606 283.488C354.422 283.447 355.205 283.198 355.954 282.741C356.718 282.277 357.438 281.613 358.114 280.749C358.791 279.885 359.415 278.824 359.987 277.565ZM378.138 271.028L367.544 294.326L363.143 292.324L373.738 269.027L378.138 271.028ZM382.954 285.364L381.375 288.836L370.83 284.041L372.409 280.569L382.954 285.364ZM388.763 275.859L387.184 279.331L375.407 273.976L376.986 270.504L388.763 275.859ZM396.156 279.221L385.561 302.519L381.161 300.518L391.755 277.22L396.156 279.221ZM400.971 293.557L399.392 297.029L388.848 292.234L390.427 288.762L400.971 293.557ZM406.781 284.053L405.202 287.525L393.425 282.169L395.004 278.697L406.781 284.053Z" fill="#4DA9C6"/>
<ellipse cx="319.5" cy="456.5" rx="23.5" ry="22.5" fill="#496EF0"/>
<circle cx="196" cy="186" r="10" fill="white"/>
<circle cx="314" cy="163" r="10" fill="white"/>
<circle cx="438" cy="196" r="10" fill="white"/>
<circle cx="531" cy="262" r="10" fill="white"/>
<circle cx="586" cy="357" r="10" fill="white"/>
<circle cx="605" cy="455" r="10" fill="white"/>
<circle cx="587" cy="553" r="10" fill="white"/>
<circle cx="521" cy="657" r="10" fill="white"/>
<circle cx="420" cy="723" r="10" fill="white"/>
<circle cx="296" cy="743" r="10" fill="white"/>
<circle cx="178" cy="715" r="10" fill="white"/>
<circle cx="99" cy="656" r="10" fill="white"/>
<circle cx="34" cy="557" r="10" fill="white"/>
<circle cx="108" cy="242" r="10" fill="white"/>
<circle cx="46" cy="327" r="10" fill="white"/>
<circle cx="18" cy="448" r="10" fill="white"/>
</svg>
